<?xml version="1.0" encoding="UTF-8"?>
<svg width="32px" height="28px" viewBox="0 0 32 28" version="1.1" xmlns="http://www.w3.org/2000/svg" xmlns:xlink="http://www.w3.org/1999/xlink">
    <!-- Generator: Sketch 50.2 (55047) - http://www.bohemiancoding.com/sketch -->
    <title>Pro</title>
    <desc>Created with Sketch.</desc>
    <defs></defs>
    <g id="Page-1" stroke="none" stroke-width="1" fill="none" fill-rule="evenodd">
        <g id="Desktop" transform="translate(-1468.000000, -695.000000)" fill="#CACACA">
            <g id="Pro" transform="translate(1468.000000, 695.000000)">
                <path d="M2.7321125,18.2205822 C3.12241429,18.3500274 3.45612231,18.3250741 3.86515858,18.3250741 L10.9940207,18.3250741 C11.1380421,19.4947597 12.0919396,20.27455 13.2437202,20.27455 L18.1767445,20.27455 C19.3281347,20.27455 20.2824226,19.4947597 20.426444,18.3250741 L27.5553061,18.3250741 C27.9569266,18.3250741 28.4920304,18.3492476 28.8823321,18.2178529 L28.8823321,25.7330827 L2.7321125,25.7330827 L2.7321125,18.2205822 Z M18.6228594,14.8811298 C18.4589327,14.8495483 12.9494326,14.828494 12.7800417,14.8612452 C11.8280956,15.058922 11.1130627,15.9857029 10.9881662,16.7654933 L3.86515858,16.7654933 C2.66498059,16.7654933 1.56120714,15.8741929 1.56120714,14.6748753 L1.56120714,5.4585327 L29.6629357,5.4585327 L29.6629357,14.6748753 C29.6629357,15.8741929 28.7496295,16.7654933 27.5490612,16.7654933 L20.4198088,16.7654933 C20.2953026,15.9857029 19.5798794,15.0799764 18.6228594,14.8811298 L18.6228594,14.8811298 Z M18.7344857,18.0205659 C18.7344857,18.4042228 18.4234152,18.7149693 18.0393582,18.7149693 L13.1847846,18.7149693 C12.801118,18.7149693 12.4896571,18.4042228 12.4896571,18.0205659 L12.4896571,17.0700014 C12.4896571,16.6863446 12.801118,16.3755981 13.1847846,16.3755981 L18.0393582,16.3755981 C18.4234152,16.3755981 18.7344857,16.6863446 18.7344857,17.0700014 L18.7344857,18.0205659 Z M12.0993554,3.89895193 L12.0993554,1.85863039 C12.0993554,1.74945973 12.1407273,1.55958077 12.2500118,1.55958077 L19.1587438,1.55958077 C19.267638,1.55958077 19.5150893,1.74945973 19.5150893,1.85863039 L19.5150893,3.89895193 L12.0993554,3.89895193 Z M29.9127289,3.89895193 L21.0762964,3.89895193 L21.0762964,1.85278196 C21.0762964,0.875314709 20.1372303,0 19.1587438,0 L12.2500118,0 C11.2715253,0 10.5381482,0.875314709 10.5381482,1.85278196 L10.5381482,3.89895193 L1.3984513,3.89895193 C0.690834161,3.89895193 0,4.60232286 0,5.30959274 L0,14.6748753 C0,15.609844 0.390301786,16.5206391 1.17090536,17.2052951 L1.17090536,25.96663 C1.17090536,26.7000228 1.70015458,27.2926635 2.43431224,27.2926635 L28.80193,27.2926635 C29.6344437,27.2926635 30.4435393,26.6200943 30.4435393,25.7888378 L30.4435393,17.2052951 C30.8338411,16.5151806 31.2241429,15.6242701 31.2241429,14.6748753 L31.2241429,5.41213518 C31.2241429,4.64833049 30.6773301,3.89895193 29.9127289,3.89895193 L29.9127289,3.89895193 Z" id="Fill-4"></path>
                <path d="M18.7268456,15.4343193 C18.5572572,15.3989244 12.8574708,15.3753277 12.6822294,15.4120336 C11.6974051,15.6335798 10.9576765,16.6722689 10.8284663,17.5462185 L3.45944518,17.5462185 C2.21781559,17.5462185 1.07592015,16.5472941 1.07592015,15.2031597 L1.07592015,4.87394958 L30.1482227,4.87394958 L30.1482227,15.2031597 C30.1482227,16.5472941 29.2033729,17.5462185 27.9613395,17.5462185 L20.5858579,17.5462185 C20.4570514,16.6722689 19.716919,15.6571765 18.7268456,15.4343193 L18.7268456,15.4343193 Z" id="Path"></path>
            </g>
        </g>
    </g>
</svg>